<svg width="360" height="112" viewBox="0 0 360 112" fill="none" xmlns="http://www.w3.org/2000/svg" role="img" aria-label="观澜AI WaveSight AI">
  <defs>
    <linearGradient id="markBlue" x1="14" y1="12" x2="94" y2="96" gradientUnits="userSpaceOnUse">
      <stop offset="0" stop-color="#22D3EE"/>
      <stop offset="0.46" stop-color="#2563EB"/>
      <stop offset="1" stop-color="#1E1B9B"/>
    </linearGradient>
    <linearGradient id="waveLine" x1="24" y1="78" x2="92" y2="28" gradientUnits="userSpaceOnUse">
      <stop stop-color="#65E7FF"/>
      <stop offset="0.5" stop-color="#2563EB"/>
      <stop offset="1" stop-color="#6D5DF6"/>
    </linearGradient>
    <filter id="softShadow" x="-20" y="-20" width="150" height="150" filterUnits="userSpaceOnUse" color-interpolation-filters="sRGB">
      <feDropShadow dx="0" dy="14" stdDeviation="18" flood-color="#2563EB" flood-opacity="0.18"/>
    </filter>
  </defs>
  <g filter="url(#softShadow)">
    <circle cx="56" cy="56" r="43" fill="white"/>
    <circle cx="56" cy="56" r="41" stroke="url(#markBlue)" stroke-width="2"/>
    <circle cx="56" cy="56" r="29" stroke="#BBD7FF" stroke-width="1.5"/>
    <circle cx="56" cy="56" r="17" stroke="#C8F6FF" stroke-width="1.5"/>
    <path d="M22 69C34 50 48 43 64 45C79 47 84 35 92 23" stroke="url(#waveLine)" stroke-width="5" stroke-linecap="round"/>
    <path d="M27 80C40 67 53 62 67 64C78 65 85 58 92 49" stroke="#38BDF8" stroke-width="2.2" stroke-linecap="round" opacity="0.68"/>
    <path d="M37 32C47 23 64 19 77 27" stroke="#2563EB" stroke-width="2.2" stroke-linecap="round" opacity="0.78"/>
    <circle cx="56" cy="56" r="6" fill="#0F2A74"/>
    <circle cx="23" cy="69" r="4" fill="#22D3EE"/>
    <circle cx="92" cy="23" r="4" fill="#2563EB"/>
    <circle cx="77" cy="27" r="3.5" fill="#6D5DF6"/>
  </g>
  <g fill="#082668">
    <text x="122" y="49" font-family="'Noto Sans SC','Microsoft YaHei',Arial,sans-serif" font-size="31" font-weight="800">观澜AI</text>
    <text x="122" y="75" font-family="Arial, sans-serif" font-size="16" font-weight="700" letter-spacing="0">WaveSight AI</text>
    <path d="M122 85H310" stroke="#C5D5F7" stroke-width="1.5"/>
    <text x="122" y="102" font-family="'Noto Sans SC','Microsoft YaHei',Arial,sans-serif" font-size="12" font-weight="600" fill="#53719F">观AI之澜，识商业之势</text>
  </g>
</svg>
