<svg xmlns="http://www.w3.org/2000/svg" width="1100" height="820" viewBox="0 0 1100 820" role="img" aria-labelledby="title desc">
  <title id="title">观澜AI商业判断视觉图</title>
  <desc id="desc">A refined WaveSight AI interface showing how signals become scoring, trends, opportunities, and decisions.</desc>
  <defs>
    <linearGradient id="bg" x1="0" y1="0" x2="1" y2="1">
      <stop offset="0" stop-color="#fffdfa"/>
      <stop offset=".56" stop-color="#f5efe5"/>
      <stop offset="1" stop-color="#dfe8e1"/>
    </linearGradient>
    <linearGradient id="deep" x1="0" y1="0" x2="1" y2="1">
      <stop offset="0" stop-color="#10241f"/>
      <stop offset=".62" stop-color="#21443c"/>
      <stop offset="1" stop-color="#315c53"/>
    </linearGradient>
    <linearGradient id="beam" x1="0" y1="0" x2="1" y2="0">
      <stop offset="0" stop-color="#0f8b78" stop-opacity=".04"/>
      <stop offset="1" stop-color="#0f8b78" stop-opacity=".36"/>
    </linearGradient>
    <linearGradient id="wave" x1="100" y1="640" x2="1020" y2="468" gradientUnits="userSpaceOnUse">
      <stop offset="0" stop-color="#8fc7aa" stop-opacity=".12"/>
      <stop offset=".48" stop-color="#0f8b78" stop-opacity=".22"/>
      <stop offset="1" stop-color="#c76a38" stop-opacity=".16"/>
    </linearGradient>
    <filter id="softShadow" x="-20%" y="-20%" width="140%" height="140%">
      <feDropShadow dx="0" dy="16" stdDeviation="16" flood-color="#1f2926" flood-opacity=".14"/>
    </filter>
    <filter id="fineShadow" x="-20%" y="-20%" width="140%" height="140%">
      <feDropShadow dx="0" dy="10" stdDeviation="9" flood-color="#1f2926" flood-opacity=".10"/>
    </filter>
  </defs>

  <rect width="1100" height="820" rx="34" fill="url(#bg)"/>
  <path d="M0 642 C142 566 252 612 372 552 C504 486 620 574 762 506 C888 446 988 452 1100 390 L1100 820 L0 820 Z" fill="url(#wave)"/>
  <path d="M0 710 C156 626 286 696 424 626 C566 554 666 666 826 590 C944 534 1016 556 1100 512 L1100 820 L0 820 Z" fill="#18362f" opacity=".18"/>
  <g opacity=".34" stroke="#fffdfa" stroke-width="1.2" fill="none">
    <path d="M42 760 C210 690 342 748 512 676 C700 596 830 688 1058 612"/>
    <path d="M76 800 C236 730 390 786 574 714 C742 648 872 732 1040 674"/>
    <path d="M126 708 224 762 360 694 500 744 654 674 814 734 966 650"/>
  </g>

  <g transform="translate(58 52)">
    <rect width="264" height="74" rx="18" fill="#fffdfa" stroke="#ded8cd" filter="url(#fineShadow)"/>
    <g transform="translate(22 16)">
      <circle cx="22" cy="22" r="19" fill="#10241f"/>
      <path d="M10 26C17 17 25 17 32 26s13 9 20 0" fill="none" stroke="#8fc7aa" stroke-width="3.5" stroke-linecap="round"/>
      <path d="M22 22 38 11" stroke="#c76a38" stroke-width="2.8" stroke-linecap="round"/>
      <circle cx="22" cy="22" r="4" fill="#fffdfa"/>
    </g>
    <text x="78" y="32" font-family="Segoe UI, Microsoft YaHei, Arial, sans-serif" font-size="22" font-weight="800" fill="#1d2422">观澜AI</text>
    <text x="78" y="54" font-family="Segoe UI, Microsoft YaHei, Arial, sans-serif" font-size="14" fill="#6d746f">WaveSight AI</text>
  </g>

  <g transform="translate(92 170)">
    <rect width="248" height="430" rx="22" fill="#fffdfa" stroke="#ded8cd" filter="url(#softShadow)"/>
    <text x="28" y="54" font-family="Segoe UI, Microsoft YaHei, Arial, sans-serif" font-size="28" font-weight="800" fill="#1d2422">Signals</text>
    <text x="28" y="82" font-family="Segoe UI, Microsoft YaHei, Arial, sans-serif" font-size="14" fill="#6d746f">从热点里筛出变化</text>
    <g transform="translate(28 118)">
      <rect width="192" height="58" rx="12" fill="#edf3ee"/>
      <circle cx="29" cy="29" r="12" fill="#0f8b78"/>
      <rect x="55" y="18" width="96" height="8" rx="4" fill="#8da49d"/>
      <rect x="55" y="34" width="122" height="8" rx="4" fill="#c6d0ca"/>
    </g>
    <g transform="translate(28 198)">
      <rect width="192" height="58" rx="12" fill="#f8f1e8"/>
      <circle cx="29" cy="29" r="12" fill="#c76a38"/>
      <rect x="55" y="18" width="126" height="8" rx="4" fill="#a58d7c"/>
      <rect x="55" y="34" width="82" height="8" rx="4" fill="#d5c7bb"/>
    </g>
    <g transform="translate(28 278)">
      <rect width="192" height="58" rx="12" fill="#edf3ee"/>
      <circle cx="29" cy="29" r="12" fill="#0f8b78"/>
      <rect x="55" y="18" width="108" height="8" rx="4" fill="#8da49d"/>
      <rect x="55" y="34" width="132" height="8" rx="4" fill="#c6d0ca"/>
    </g>
  </g>

  <g transform="translate(398 128)">
    <circle cx="248" cy="280" r="218" fill="#fffdfa" stroke="#ded8cd" filter="url(#softShadow)"/>
    <circle cx="248" cy="280" r="176" fill="url(#deep)"/>
    <circle cx="248" cy="280" r="138" fill="none" stroke="#fffdfa" stroke-opacity=".42" stroke-width="2"/>
    <circle cx="248" cy="280" r="98" fill="none" stroke="#fffdfa" stroke-opacity=".36" stroke-width="2"/>
    <circle cx="248" cy="280" r="58" fill="none" stroke="#fffdfa" stroke-opacity=".33" stroke-width="2"/>
    <circle cx="248" cy="280" r="18" fill="none" stroke="#fffdfa" stroke-opacity=".62" stroke-width="2"/>
    <path d="M248 280 L410 190 A176 176 0 0 1 424 358 Z" fill="url(#beam)"/>
    <path d="M248 104 L248 456M72 280H424" stroke="#fffdfa" stroke-opacity=".46"/>
    <path d="M110 310C154 250 188 250 232 310s88 60 132 0 64-60 100 0" fill="none" stroke="#8fc7aa" stroke-width="5" stroke-linecap="round" opacity=".74"/>
    <path d="M120 338C160 294 196 294 236 338s80 44 120 0 58-44 88 0" fill="none" stroke="#fffdfa" stroke-width="2.4" stroke-linecap="round" opacity=".36"/>
    <path d="M248 280 392 208" stroke="#8fc7aa" stroke-width="5" stroke-linecap="round"/>
    <circle cx="248" cy="280" r="10" fill="#c76a38" stroke="#fffdfa" stroke-width="5"/>
    <circle cx="164" cy="198" r="10" fill="#c76a38" stroke="#fffdfa" stroke-width="4"/>
    <circle cx="330" cy="212" r="11" fill="#8fc7aa" stroke="#fffdfa" stroke-width="4"/>
    <circle cx="338" cy="360" r="10" fill="#c76a38" stroke="#fffdfa" stroke-width="4"/>
    <circle cx="172" cy="370" r="12" fill="#8fc7aa" stroke="#fffdfa" stroke-width="4"/>
    <text x="248" y="516" text-anchor="middle" font-family="Segoe UI, Microsoft YaHei, Arial, sans-serif" font-size="22" font-weight="800" fill="#1d2422">WaveSight Intelligence</text>
    <text x="248" y="544" text-anchor="middle" font-family="Segoe UI, Microsoft YaHei, Arial, sans-serif" font-size="15" fill="#6d746f">观AI之澜，识商业之势</text>
  </g>

  <g transform="translate(828 148)">
    <rect width="218" height="454" rx="22" fill="#fffdfa" stroke="#ded8cd" filter="url(#softShadow)"/>
    <text x="26" y="54" font-family="Segoe UI, Microsoft YaHei, Arial, sans-serif" font-size="28" font-weight="800" fill="#1d2422">Decisions</text>
    <text x="26" y="82" font-family="Segoe UI, Microsoft YaHei, Arial, sans-serif" font-size="14" fill="#6d746f">判断、验证、行动</text>
    <g transform="translate(26 122)">
      <rect width="166" height="78" rx="14" fill="#edf3ee"/>
      <text x="20" y="31" font-family="Segoe UI, Microsoft YaHei, Arial, sans-serif" font-size="15" font-weight="800" fill="#31534b">Scoring</text>
      <circle cx="126" cy="40" r="20" fill="none" stroke="#0f8b78" stroke-width="7" stroke-dasharray="80 45"/>
      <text x="126" y="46" text-anchor="middle" font-family="Segoe UI, Arial, sans-serif" font-size="13" font-weight="800" fill="#1d2422">92</text>
    </g>
    <g transform="translate(26 224)">
      <rect width="166" height="78" rx="14" fill="#f8f1e8"/>
      <text x="20" y="31" font-family="Segoe UI, Microsoft YaHei, Arial, sans-serif" font-size="15" font-weight="800" fill="#8b4b2a">Trends</text>
      <path d="M24 58 L54 44 L82 52 L114 27 L146 34" fill="none" stroke="#c76a38" stroke-width="4" stroke-linecap="round"/>
    </g>
    <g transform="translate(26 326)">
      <rect width="166" height="78" rx="14" fill="#10241f"/>
      <text x="20" y="32" font-family="Segoe UI, Microsoft YaHei, Arial, sans-serif" font-size="15" font-weight="800" fill="#fffdfa">Opportunity</text>
      <circle cx="34" cy="58" r="8" fill="#c76a38"/>
      <rect x="52" y="54" width="86" height="8" rx="4" fill="#8fc7aa"/>
    </g>
  </g>

  <g fill="none" stroke-linecap="round">
    <path d="M340 290 C402 290 392 290 470 292" stroke="#0f8b78" stroke-opacity=".45" stroke-width="3" stroke-dasharray="2 10"/>
    <path d="M340 370 C410 370 394 352 470 352" stroke="#c76a38" stroke-opacity=".55" stroke-width="3" stroke-dasharray="2 10"/>
    <path d="M340 450 C406 450 398 426 470 424" stroke="#0f8b78" stroke-opacity=".4" stroke-width="3" stroke-dasharray="2 10"/>
    <path d="M760 308 C798 308 788 302 828 302" stroke="#0f8b78" stroke-opacity=".5" stroke-width="3"/>
    <path d="M760 408 C808 408 790 404 828 410" stroke="#c76a38" stroke-opacity=".55" stroke-width="3"/>
    <path d="M760 506 C814 506 790 522 828 536" stroke="#0f8b78" stroke-opacity=".45" stroke-width="3"/>
  </g>
</svg>
