<svg xmlns="http://www.w3.org/2000/svg" viewBox="0 0 360 220" role="img" aria-label="Brief Cover 内参封面">
  <title>Brief Cover 内参封面</title>
  <defs>
    <linearGradient id="paperShade" x1="0" x2="1" y1="0" y2="1">
      <stop offset="0" stop-color="#FFFFFF"/>
      <stop offset="1" stop-color="#F7F4EF"/>
    </linearGradient>
    <marker id="arrow" markerWidth="8" markerHeight="8" refX="6.4" refY="4" orient="auto">
      <path d="M1 1 L7 4 L1 7" fill="none" stroke="#0D355C" stroke-width="1.5" stroke-linecap="round" stroke-linejoin="round"/>
    </marker>
    
  </defs>
  <style>
  :root {
    --gl-ink: #071827;
    --gl-deep: #0B1D2A;
    --gl-blue: #0D355C;
    --gl-wave: #1F5D8C;
    --gl-gray: #6F7F8F;
    --gl-mountain: #A7ADB4;
    --gl-border: #E5E8EC;
    --gl-bg: #F7F4EF;
    --gl-paper: #FFFFFF;
    --gl-gold: #C8A766;
  }
  * { box-sizing: border-box; }
  text { font-family: "Noto Sans SC", "Source Han Sans SC", "PingFang SC", "Microsoft YaHei", Arial, sans-serif; fill: var(--gl-ink); letter-spacing: 0; }
  .serif { font-family: "Noto Serif SC", "Source Han Serif SC", "Songti SC", serif; }
  .mono { font-family: "Inter", "IBM Plex Sans", "Avenir", Arial, sans-serif; letter-spacing: .12em; }
  .label { fill: var(--gl-gray); font-size: 12px; }
  .title { fill: var(--gl-ink); font-size: 22px; font-weight: 700; }
  .subtitle { fill: var(--gl-gray); font-size: 11px; }
  .caption { fill: var(--gl-gray); font-size: 10px; }
  .fine { stroke: var(--gl-border); stroke-width: 1; }
  .gold { stroke: var(--gl-gold); }
  .blue { stroke: var(--gl-blue); }
  .wave { stroke: var(--gl-wave); }
  .card { fill: rgba(255,255,255,.86); stroke: var(--gl-border); stroke-width: 1; }
  .soft { filter: drop-shadow(0 10px 24px rgba(7,24,39,.06)); }
  .no-fill { fill: none; stroke-linecap: round; stroke-linejoin: round; }
</style>
  <rect width="360" height="220" fill="url(#paperShade)"/>
  <rect x="32" y="28" width="296" height="184" rx="12" fill="#F2F6F8" stroke="#E5E8EC"/><path d="M32 146 C76 108 118 116 158 132 C206 150 254 112 328 70 V212 H32 Z" fill="#A7ADB4" opacity=".42"/><path d="M32 160 C82 136 122 136 164 150 C212 166 260 148 328 116" fill="none" stroke="#C8A766" opacity=".75"/><g transform="translate(56 46) scale(.35)">
  <g transform="translate(0 0) scale(1)" class="no-fill">
    <path d="M6 22 C28 8 70 8 92 22" stroke="#C8A766" stroke-width="2"/>
    <path d="M0 40 C20 29 39 31 56 39 C76 49 98 45 118 32" stroke="#071827" stroke-width="4"/>
    <path d="M3 51 C24 41 40 43 58 50 C80 59 99 55 117 45" stroke="#1F5D8C" stroke-width="3"/>
    <path d="M8 61 C28 54 43 55 60 60 C80 67 96 64 111 56" stroke="#A7ADB4" stroke-width="2"/>
  </g>
</g><text x="56" y="104" class="serif" font-size="21" font-weight="700">中国消费复苏的结构分化</text><text x="56" y="132" class="serif" font-size="21" font-weight="700">与高确定性机会</text><text x="56" y="168" class="caption">观澜 AI 商业内参</text><text x="270" y="60" class="serif" font-size="16" fill="#C8A766">No.042</text>
</svg>
